<svg xmlns="http://www.w3.org/2000/svg" viewBox="0 0 1200 1800" width="1200" height="1800" data-id="mixed.random.32" data-scene="city" data-sky="dusk" data-tram="left" data-track="1.75" data-camera="4.5" data-cam-h="1.5" data-distance-m="24.7" data-shape-bbox="388.2 906.9 245.8 352.7" data-margins="0.323 0.504 0.472 0.3" data-cells="0 0 0 0.04 0.791 0 0.008 0.161 0" data-cell="mixed">
<svg x="0" y="0" width="1200" height="1800" viewBox="0 0 1800 1200" preserveAspectRatio="xMidYMid slice" data-part="sky"><defs><linearGradient id="sky-g" x1="0" y1="0" x2="0" y2="1"><stop offset="0" stop-color="#2D2A5C"/><stop offset="0.6" stop-color="#7A4D8C"/><stop offset="1" stop-color="#E58A8A"/></linearGradient></defs><rect width="1800" height="1200" fill="url(#sky-g)"/><circle cx="1180" cy="700" r="90" fill="#FFB27A" opacity="0.9"/></svg>
<rect x="0" y="1140" width="1200" height="660" fill="#6E727A" data-part="ground"/>
<svg x="-638.1" y="0" width="2700" height="1800" viewBox="0 0 1800 1200" preserveAspectRatio="xMinYMin meet" data-part="scene"><rect x="-20" y="580" width="140" height="180" fill="#8A97AD"/><rect x="128" y="483" width="90" height="277" fill="#8A97AD"/><rect x="226" y="386" width="200" height="374" fill="#8A97AD"/><rect x="434" y="529" width="120" height="231" fill="#8A97AD"/><rect x="562" y="432" width="160" height="328" fill="#8A97AD"/><rect x="730" y="575" width="100" height="185" fill="#8A97AD"/><rect x="838" y="478" width="220" height="282" fill="#8A97AD"/><rect x="1066" y="381" width="130" height="379" fill="#8A97AD"/><rect x="1204" y="524" width="180" height="236" fill="#8A97AD"/><rect x="1392" y="427" width="110" height="333" fill="#8A97AD"/><rect x="1510" y="570" width="150" height="190" fill="#8A97AD"/><rect x="1668" y="473" width="200" height="287" fill="#8A97AD"/><rect x="0" y="460" width="260" height="300" fill="#55627C"/><rect x="22" y="490" width="20" height="26" fill="#C9D3E3" opacity="0.7"/><rect x="66" y="490" width="20" height="26" fill="#C9D3E3" opacity="0.7"/><rect x="110" y="490" width="20" height="26" fill="#C9D3E3" opacity="0.7"/><rect x="154" y="490" width="20" height="26" fill="#C9D3E3" opacity="0.7"/><rect x="198" y="490" width="20" height="26" fill="#C9D3E3" opacity="0.7"/><rect x="22" y="536" width="20" height="26" fill="#C9D3E3" opacity="0.7"/><rect x="66" y="536" width="20" height="26" fill="#C9D3E3" opacity="0.7"/><rect x="110" y="536" width="20" height="26" fill="#C9D3E3" opacity="0.7"/><rect x="154" y="536" width="20" height="26" fill="#C9D3E3" opacity="0.7"/><rect x="198" y="536" width="20" height="26" fill="#C9D3E3" opacity="0.7"/><rect x="22" y="582" width="20" height="26" fill="#C9D3E3" opacity="0.7"/><rect x="66" y="582" width="20" height="26" fill="#C9D3E3" opacity="0.7"/><rect x="110" y="582" width="20" height="26" fill="#C9D3E3" opacity="0.7"/><rect x="154" y="582" width="20" height="26" fill="#C9D3E3" opacity="0.7"/><rect x="198" y="582" width="20" height="26" fill="#C9D3E3" opacity="0.7"/><rect x="22" y="628" width="20" height="26" fill="#C9D3E3" opacity="0.7"/><rect x="66" y="628" width="20" height="26" fill="#C9D3E3" opacity="0.7"/><rect x="110" y="628" width="20" height="26" fill="#C9D3E3" opacity="0.7"/><rect x="154" y="628" width="20" height="26" fill="#C9D3E3" opacity="0.7"/><rect x="198" y="628" width="20" height="26" fill="#C9D3E3" opacity="0.7"/><rect x="22" y="674" width="20" height="26" fill="#C9D3E3" opacity="0.7"/><rect x="66" y="674" width="20" height="26" fill="#C9D3E3" opacity="0.7"/><rect x="110" y="674" width="20" height="26" fill="#C9D3E3" opacity="0.7"/><rect x="154" y="674" width="20" height="26" fill="#C9D3E3" opacity="0.7"/><rect x="198" y="674" width="20" height="26" fill="#C9D3E3" opacity="0.7"/><rect x="300" y="340" width="180" height="420" fill="#55627C"/><rect x="322" y="370" width="20" height="26" fill="#C9D3E3" opacity="0.7"/><rect x="366" y="370" width="20" height="26" fill="#C9D3E3" opacity="0.7"/><rect x="410" y="370" width="20" height="26" fill="#C9D3E3" opacity="0.7"/><rect x="322" y="416" width="20" height="26" fill="#C9D3E3" opacity="0.7"/><rect x="366" y="416" width="20" height="26" fill="#C9D3E3" opacity="0.7"/><rect x="410" y="416" width="20" height="26" fill="#C9D3E3" opacity="0.7"/><rect x="322" y="462" width="20" height="26" fill="#C9D3E3" opacity="0.7"/><rect x="366" y="462" width="20" height="26" fill="#C9D3E3" opacity="0.7"/><rect x="410" y="462" width="20" height="26" fill="#C9D3E3" opacity="0.7"/><rect x="322" y="508" width="20" height="26" fill="#C9D3E3" opacity="0.7"/><rect x="366" y="508" width="20" height="26" fill="#C9D3E3" opacity="0.7"/><rect x="410" y="508" width="20" height="26" fill="#C9D3E3" opacity="0.7"/><rect x="322" y="554" width="20" height="26" fill="#C9D3E3" opacity="0.7"/><rect x="366" y="554" width="20" height="26" fill="#C9D3E3" opacity="0.7"/><rect x="410" y="554" width="20" height="26" fill="#C9D3E3" opacity="0.7"/><rect x="322" y="600" width="20" height="26" fill="#C9D3E3" opacity="0.7"/><rect x="366" y="600" width="20" height="26" fill="#C9D3E3" opacity="0.7"/><rect x="410" y="600" width="20" height="26" fill="#C9D3E3" opacity="0.7"/><rect x="322" y="646" width="20" height="26" fill="#C9D3E3" opacity="0.7"/><rect x="366" y="646" width="20" height="26" fill="#C9D3E3" opacity="0.7"/><rect x="410" y="646" width="20" height="26" fill="#C9D3E3" opacity="0.7"/><rect x="322" y="692" width="20" height="26" fill="#C9D3E3" opacity="0.7"/><rect x="366" y="692" width="20" height="26" fill="#C9D3E3" opacity="0.7"/><rect x="410" y="692" width="20" height="26" fill="#C9D3E3" opacity="0.7"/><rect x="520" y="500" width="320" height="260" fill="#55627C"/><rect x="542" y="530" width="20" height="26" fill="#C9D3E3" opacity="0.7"/><rect x="586" y="530" width="20" height="26" fill="#C9D3E3" opacity="0.7"/><rect x="630" y="530" width="20" height="26" fill="#C9D3E3" opacity="0.7"/><rect x="674" y="530" width="20" height="26" fill="#C9D3E3" opacity="0.7"/><rect x="718" y="530" width="20" height="26" fill="#C9D3E3" opacity="0.7"/><rect x="762" y="530" width="20" height="26" fill="#C9D3E3" opacity="0.7"/><rect x="806" y="530" width="20" height="26" fill="#C9D3E3" opacity="0.7"/><rect x="542" y="576" width="20" height="26" fill="#C9D3E3" opacity="0.7"/><rect x="586" y="576" width="20" height="26" fill="#C9D3E3" opacity="0.7"/><rect x="630" y="576" width="20" height="26" fill="#C9D3E3" opacity="0.7"/><rect x="674" y="576" width="20" height="26" fill="#C9D3E3" opacity="0.7"/><rect x="718" y="576" width="20" height="26" fill="#C9D3E3" opacity="0.7"/><rect x="762" y="576" width="20" height="26" fill="#C9D3E3" opacity="0.7"/><rect x="806" y="576" width="20" height="26" fill="#C9D3E3" opacity="0.7"/><rect x="542" y="622" width="20" height="26" fill="#C9D3E3" opacity="0.7"/><rect x="586" y="622" width="20" height="26" fill="#C9D3E3" opacity="0.7"/><rect x="630" y="622" width="20" height="26" fill="#C9D3E3" opacity="0.7"/><rect x="674" y="622" width="20" height="26" fill="#C9D3E3" opacity="0.7"/><rect x="718" y="622" width="20" height="26" fill="#C9D3E3" opacity="0.7"/><rect x="762" y="622" width="20" height="26" fill="#C9D3E3" opacity="0.7"/><rect x="806" y="622" width="20" height="26" fill="#C9D3E3" opacity="0.7"/><rect x="542" y="668" width="20" height="26" fill="#C9D3E3" opacity="0.7"/><rect x="586" y="668" width="20" height="26" fill="#C9D3E3" opacity="0.7"/><rect x="630" y="668" width="20" height="26" fill="#C9D3E3" opacity="0.7"/><rect x="674" y="668" width="20" height="26" fill="#C9D3E3" opacity="0.7"/><rect x="718" y="668" width="20" height="26" fill="#C9D3E3" opacity="0.7"/><rect x="762" y="668" width="20" height="26" fill="#C9D3E3" opacity="0.7"/><rect x="806" y="668" width="20" height="26" fill="#C9D3E3" opacity="0.7"/><rect x="542" y="714" width="20" height="26" fill="#C9D3E3" opacity="0.7"/><rect x="586" y="714" width="20" height="26" fill="#C9D3E3" opacity="0.7"/><rect x="630" y="714" width="20" height="26" fill="#C9D3E3" opacity="0.7"/><rect x="674" y="714" width="20" height="26" fill="#C9D3E3" opacity="0.7"/><rect x="718" y="714" width="20" height="26" fill="#C9D3E3" opacity="0.7"/><rect x="762" y="714" width="20" height="26" fill="#C9D3E3" opacity="0.7"/><rect x="806" y="714" width="20" height="26" fill="#C9D3E3" opacity="0.7"/><rect x="880" y="380" width="200" height="380" fill="#55627C"/><rect x="902" y="410" width="20" height="26" fill="#C9D3E3" opacity="0.7"/><rect x="946" y="410" width="20" height="26" fill="#C9D3E3" opacity="0.7"/><rect x="990" y="410" width="20" height="26" fill="#C9D3E3" opacity="0.7"/><rect x="1034" y="410" width="20" height="26" fill="#C9D3E3" opacity="0.7"/><rect x="902" y="456" width="20" height="26" fill="#C9D3E3" opacity="0.7"/><rect x="946" y="456" width="20" height="26" fill="#C9D3E3" opacity="0.7"/><rect x="990" y="456" width="20" height="26" fill="#C9D3E3" opacity="0.7"/><rect x="1034" y="456" width="20" height="26" fill="#C9D3E3" opacity="0.7"/><rect x="902" y="502" width="20" height="26" fill="#C9D3E3" opacity="0.7"/><rect x="946" y="502" width="20" height="26" fill="#C9D3E3" opacity="0.7"/><rect x="990" y="502" width="20" height="26" fill="#C9D3E3" opacity="0.7"/><rect x="1034" y="502" width="20" height="26" fill="#C9D3E3" opacity="0.7"/><rect x="902" y="548" width="20" height="26" fill="#C9D3E3" opacity="0.7"/><rect x="946" y="548" width="20" height="26" fill="#C9D3E3" opacity="0.7"/><rect x="990" y="548" width="20" height="26" fill="#C9D3E3" opacity="0.7"/><rect x="1034" y="548" width="20" height="26" fill="#C9D3E3" opacity="0.7"/><rect x="902" y="594" width="20" height="26" fill="#C9D3E3" opacity="0.7"/><rect x="946" y="594" width="20" height="26" fill="#C9D3E3" opacity="0.7"/><rect x="990" y="594" width="20" height="26" fill="#C9D3E3" opacity="0.7"/><rect x="1034" y="594" width="20" height="26" fill="#C9D3E3" opacity="0.7"/><rect x="902" y="640" width="20" height="26" fill="#C9D3E3" opacity="0.7"/><rect x="946" y="640" width="20" height="26" fill="#C9D3E3" opacity="0.7"/><rect x="990" y="640" width="20" height="26" fill="#C9D3E3" opacity="0.7"/><rect x="1034" y="640" width="20" height="26" fill="#C9D3E3" opacity="0.7"/><rect x="902" y="686" width="20" height="26" fill="#C9D3E3" opacity="0.7"/><rect x="946" y="686" width="20" height="26" fill="#C9D3E3" opacity="0.7"/><rect x="990" y="686" width="20" height="26" fill="#C9D3E3" opacity="0.7"/><rect x="1034" y="686" width="20" height="26" fill="#C9D3E3" opacity="0.7"/><rect x="1120" y="440" width="260" height="320" fill="#55627C"/><rect x="1142" y="470" width="20" height="26" fill="#C9D3E3" opacity="0.7"/><rect x="1186" y="470" width="20" height="26" fill="#C9D3E3" opacity="0.7"/><rect x="1230" y="470" width="20" height="26" fill="#C9D3E3" opacity="0.7"/><rect x="1274" y="470" width="20" height="26" fill="#C9D3E3" opacity="0.7"/><rect x="1318" y="470" width="20" height="26" fill="#C9D3E3" opacity="0.7"/><rect x="1142" y="516" width="20" height="26" fill="#C9D3E3" opacity="0.7"/><rect x="1186" y="516" width="20" height="26" fill="#C9D3E3" opacity="0.7"/><rect x="1230" y="516" width="20" height="26" fill="#C9D3E3" opacity="0.7"/><rect x="1274" y="516" width="20" height="26" fill="#C9D3E3" opacity="0.7"/><rect x="1318" y="516" width="20" height="26" fill="#C9D3E3" opacity="0.7"/><rect x="1142" y="562" width="20" height="26" fill="#C9D3E3" opacity="0.7"/><rect x="1186" y="562" width="20" height="26" fill="#C9D3E3" opacity="0.7"/><rect x="1230" y="562" width="20" height="26" fill="#C9D3E3" opacity="0.7"/><rect x="1274" y="562" width="20" height="26" fill="#C9D3E3" opacity="0.7"/><rect x="1318" y="562" width="20" height="26" fill="#C9D3E3" opacity="0.7"/><rect x="1142" y="608" width="20" height="26" fill="#C9D3E3" opacity="0.7"/><rect x="1186" y="608" width="20" height="26" fill="#C9D3E3" opacity="0.7"/><rect x="1230" y="608" width="20" height="26" fill="#C9D3E3" opacity="0.7"/><rect x="1274" y="608" width="20" height="26" fill="#C9D3E3" opacity="0.7"/><rect x="1318" y="608" width="20" height="26" fill="#C9D3E3" opacity="0.7"/><rect x="1142" y="654" width="20" height="26" fill="#C9D3E3" opacity="0.7"/><rect x="1186" y="654" width="20" height="26" fill="#C9D3E3" opacity="0.7"/><rect x="1230" y="654" width="20" height="26" fill="#C9D3E3" opacity="0.7"/><rect x="1274" y="654" width="20" height="26" fill="#C9D3E3" opacity="0.7"/><rect x="1318" y="654" width="20" height="26" fill="#C9D3E3" opacity="0.7"/><rect x="1142" y="700" width="20" height="26" fill="#C9D3E3" opacity="0.7"/><rect x="1186" y="700" width="20" height="26" fill="#C9D3E3" opacity="0.7"/><rect x="1230" y="700" width="20" height="26" fill="#C9D3E3" opacity="0.7"/><rect x="1274" y="700" width="20" height="26" fill="#C9D3E3" opacity="0.7"/><rect x="1318" y="700" width="20" height="26" fill="#C9D3E3" opacity="0.7"/><rect x="1420" y="300" width="160" height="460" fill="#55627C"/><rect x="1442" y="330" width="20" height="26" fill="#C9D3E3" opacity="0.7"/><rect x="1486" y="330" width="20" height="26" fill="#C9D3E3" opacity="0.7"/><rect x="1530" y="330" width="20" height="26" fill="#C9D3E3" opacity="0.7"/><rect x="1442" y="376" width="20" height="26" fill="#C9D3E3" opacity="0.7"/><rect x="1486" y="376" width="20" height="26" fill="#C9D3E3" opacity="0.7"/><rect x="1530" y="376" width="20" height="26" fill="#C9D3E3" opacity="0.7"/><rect x="1442" y="422" width="20" height="26" fill="#C9D3E3" opacity="0.7"/><rect x="1486" y="422" width="20" height="26" fill="#C9D3E3" opacity="0.7"/><rect x="1530" y="422" width="20" height="26" fill="#C9D3E3" opacity="0.7"/><rect x="1442" y="468" width="20" height="26" fill="#C9D3E3" opacity="0.7"/><rect x="1486" y="468" width="20" height="26" fill="#C9D3E3" opacity="0.7"/><rect x="1530" y="468" width="20" height="26" fill="#C9D3E3" opacity="0.7"/><rect x="1442" y="514" width="20" height="26" fill="#C9D3E3" opacity="0.7"/><rect x="1486" y="514" width="20" height="26" fill="#C9D3E3" opacity="0.7"/><rect x="1530" y="514" width="20" height="26" fill="#C9D3E3" opacity="0.7"/><rect x="1442" y="560" width="20" height="26" fill="#C9D3E3" opacity="0.7"/><rect x="1486" y="560" width="20" height="26" fill="#C9D3E3" opacity="0.7"/><rect x="1530" y="560" width="20" height="26" fill="#C9D3E3" opacity="0.7"/><rect x="1442" y="606" width="20" height="26" fill="#C9D3E3" opacity="0.7"/><rect x="1486" y="606" width="20" height="26" fill="#C9D3E3" opacity="0.7"/><rect x="1530" y="606" width="20" height="26" fill="#C9D3E3" opacity="0.7"/><rect x="1442" y="652" width="20" height="26" fill="#C9D3E3" opacity="0.7"/><rect x="1486" y="652" width="20" height="26" fill="#C9D3E3" opacity="0.7"/><rect x="1530" y="652" width="20" height="26" fill="#C9D3E3" opacity="0.7"/><rect x="1442" y="698" width="20" height="26" fill="#C9D3E3" opacity="0.7"/><rect x="1486" y="698" width="20" height="26" fill="#C9D3E3" opacity="0.7"/><rect x="1530" y="698" width="20" height="26" fill="#C9D3E3" opacity="0.7"/><rect x="1620" y="460" width="200" height="300" fill="#55627C"/><rect x="1642" y="490" width="20" height="26" fill="#C9D3E3" opacity="0.7"/><rect x="1686" y="490" width="20" height="26" fill="#C9D3E3" opacity="0.7"/><rect x="1730" y="490" width="20" height="26" fill="#C9D3E3" opacity="0.7"/><rect x="1774" y="490" width="20" height="26" fill="#C9D3E3" opacity="0.7"/><rect x="1642" y="536" width="20" height="26" fill="#C9D3E3" opacity="0.7"/><rect x="1686" y="536" width="20" height="26" fill="#C9D3E3" opacity="0.7"/><rect x="1730" y="536" width="20" height="26" fill="#C9D3E3" opacity="0.7"/><rect x="1774" y="536" width="20" height="26" fill="#C9D3E3" opacity="0.7"/><rect x="1642" y="582" width="20" height="26" fill="#C9D3E3" opacity="0.7"/><rect x="1686" y="582" width="20" height="26" fill="#C9D3E3" opacity="0.7"/><rect x="1730" y="582" width="20" height="26" fill="#C9D3E3" opacity="0.7"/><rect x="1774" y="582" width="20" height="26" fill="#C9D3E3" opacity="0.7"/><rect x="1642" y="628" width="20" height="26" fill="#C9D3E3" opacity="0.7"/><rect x="1686" y="628" width="20" height="26" fill="#C9D3E3" opacity="0.7"/><rect x="1730" y="628" width="20" height="26" fill="#C9D3E3" opacity="0.7"/><rect x="1774" y="628" width="20" height="26" fill="#C9D3E3" opacity="0.7"/><rect x="1642" y="674" width="20" height="26" fill="#C9D3E3" opacity="0.7"/><rect x="1686" y="674" width="20" height="26" fill="#C9D3E3" opacity="0.7"/><rect x="1730" y="674" width="20" height="26" fill="#C9D3E3" opacity="0.7"/><rect x="1774" y="674" width="20" height="26" fill="#C9D3E3" opacity="0.7"/><rect x="0" y="760" width="1800" height="440" fill="#6E727A"/></svg>
<g data-part="road"><polygon points="-3344.1,1860 447.9,1860 708.5,1149.1 660.5,1149.1" fill="#9A9DA3"/><polygon points="-3128.1,1860 231.9,1860 705.8,1149.1 663.3,1149.1" fill="#4A4D55"/><polygon points="-1481.7,1860 -1414.5,1860 -623.3,1592.1 -665.5,1592.1" fill="#E8E4D8" opacity="0.6"/><polygon points="-292,1469.5 -261.2,1469.5 -53.6,1399.2 -77.8,1399.2" fill="#E8E4D8" opacity="0.6"/><polygon points="61,1353.6 81,1353.6 175.3,1321.7 158.4,1321.7" fill="#E8E4D8" opacity="0.6"/><polygon points="230.4,1298 245.1,1298 298.8,1279.9 285.8,1279.9" fill="#E8E4D8" opacity="0.6"/><polygon points="329.8,1265.4 341.5,1265.4 376.1,1253.7 365.5,1253.7" fill="#E8E4D8" opacity="0.6"/><polygon points="395.2,1244 404.9,1244 429.1,1235.8 420.1,1235.8" fill="#E8E4D8" opacity="0.6"/><polygon points="441.4,1228.8 449.7,1228.8 467.6,1222.7 459.8,1222.7" fill="#E8E4D8" opacity="0.6"/><polygon points="475.9,1217.5 483.1,1217.5 496.8,1212.8 490.1,1212.8" fill="#E8E4D8" opacity="0.6"/><polygon points="502.6,1208.7 509,1208.7 519.9,1205 513.8,1205" fill="#E8E4D8" opacity="0.6"/><polygon points="523.9,1201.7 529.6,1201.7 538.4,1198.7 532.9,1198.7" fill="#E8E4D8" opacity="0.6"/><polygon points="541.2,1196 546.4,1196 553.7,1193.6 548.7,1193.6" fill="#E8E4D8" opacity="0.6"/><polygon points="555.6,1191.3 560.4,1191.3 566.5,1189.2 561.9,1189.2" fill="#E8E4D8" opacity="0.6"/><polygon points="567.8,1187.3 572.2,1187.3 577.4,1185.5 573.2,1185.5" fill="#E8E4D8" opacity="0.6"/><polygon points="578.2,1183.9 582.3,1183.9 586.8,1182.4 582.8,1182.4" fill="#E8E4D8" opacity="0.6"/><polygon points="587.2,1180.9 591,1180.9 594.9,1179.6 591.3,1179.6" fill="#E8E4D8" opacity="0.6"/><polygon points="595.1,1178.3 598.6,1178.3 602.1,1177.2 598.6,1177.2" fill="#E8E4D8" opacity="0.6"/><polygon points="602,1176.1 605.4,1176.1 608.4,1175 605.2,1175" fill="#E8E4D8" opacity="0.6"/><polygon points="608.2,1174 611.3,1174 614.1,1173.1 611,1173.1" fill="#E8E4D8" opacity="0.6"/><polygon points="613.7,1172.2 616.7,1172.2 619.1,1171.4 616.2,1171.4" fill="#E8E4D8" opacity="0.6"/><polygon points="618.6,1170.6 621.5,1170.6 623.7,1169.9 620.9,1169.9" fill="#E8E4D8" opacity="0.6"/><polygon points="623.1,1169.1 625.8,1169.1 627.8,1168.5 625.2,1168.5" fill="#E8E4D8" opacity="0.6"/><polygon points="627.1,1167.8 629.7,1167.8 631.6,1167.2 629,1167.2" fill="#E8E4D8" opacity="0.6"/><polygon points="630.9,1166.6 633.3,1166.6 635,1166 632.6,1166" fill="#E8E4D8" opacity="0.6"/><polygon points="634.3,1165.5 636.6,1165.5 638.2,1165 635.8,1165" fill="#E8E4D8" opacity="0.6"/><polygon points="637.4,1164.5 639.7,1164.5 641.1,1164 638.8,1164" fill="#E8E4D8" opacity="0.6"/><polygon points="640.3,1163.5 642.5,1163.5 643.8,1163.1 641.6,1163.1" fill="#E8E4D8" opacity="0.6"/><polygon points="-2648.1,1860 -1928.1,1860 678.5,1149.1 669.4,1149.1" fill="#000000" opacity="0.06"/><polygon points="-2648.1,1860 -2614.5,1860 669.8,1149.1 669.4,1149.1" fill="#B9BCC2"/><polygon points="-1961.7,1860 -1928.1,1860 678.5,1149.1 678,1149.1" fill="#B9BCC2"/><polygon points="-968.1,1860 -248.1,1860 699.7,1149.1 690.6,1149.1" fill="#000000" opacity="0.06"/><polygon points="-968.1,1860 -934.5,1860 691,1149.1 690.6,1149.1" fill="#B9BCC2"/><polygon points="-281.7,1860 -248.1,1860 699.7,1149.1 699.3,1149.1" fill="#B9BCC2"/></g>
<ellipse cx="441.6" cy="1287.4" rx="205.2" ry="21.4" fill="#000000" opacity="0.25"/>
<svg x="227.8" y="837.5" width="427.5" height="481" viewBox="0 0 800 900" preserveAspectRatio="xMidYMid meet" data-part="tram"><path d="M140 250 L380 155 L380 790 L140 745.3 Z" fill="#D9CBA3"/><path d="M140 495.7 L380 470 L380 790 L140 745.3 Z" fill="#A9281F"/><path d="M140 565.9 L380 560 L380 586 L140 586.2 Z" fill="#D9CBA3"/><path d="M255 247.4 L292 229 L292 416.9 L255 425.6 Z" fill="#8FB7CF"/><path d="M205 272.3 L245 252.4 L245 428 L205 437.4 Z" fill="#8FB7CF"/><path d="M155 297.1 L195 277.2 L195 439.8 L155 449.3 Z" fill="#8FB7CF"/><path d="M140 721.9 L380 760 L380 790 L140 745.3 Z" fill="#2A2A2E"/><path d="M160 759 L380 800 L380 842 L160 792.9 Z" fill="#1B1B1E"/><g transform="translate(230 0)"><path d="M300 40 L210 130 M300 40 L390 130 M255 40 H345" stroke="#2A2A2E" stroke-width="7" fill="none" stroke-linecap="round"/>
<rect x="240" y="118" width="120" height="14" rx="4" fill="#2A2A2E"/>
<path d="M70 320 Q70 130 300 130 Q530 130 530 320 V790 H70 Z" fill="#EFE3C3"/>
<path d="M70 470 H530 V790 H70 Z" fill="#C8332B"/>
<rect x="70" y="560" width="460" height="26" fill="#EFE3C3"/>
<path d="M105 225 Q300 190 495 225 V415 Q300 440 105 415 Z" fill="#8FB7CF"/>
<path d="M120 235 Q300 205 480 235 V300 Q300 325 120 300 Z" fill="#FFFFFF" opacity="0.18"/>
<rect x="200" y="168" width="200" height="36" rx="6" fill="#2A2A2E"/>
<rect x="215" y="180" width="90" height="12" rx="2" fill="#F2B84B"/>
<circle cx="300" cy="650" r="42" fill="#F6EFD2" stroke="#2A2A2E" stroke-width="6"/>
<circle cx="125" cy="710" r="17" fill="#E8A33C"/><circle cx="475" cy="710" r="17" fill="#E8A33C"/>
<rect x="60" y="760" width="480" height="40" rx="6" fill="#2A2A2E"/>
<rect x="95" y="800" width="410" height="42" fill="#1B1B1E"/>
<rect x="270" y="796" width="60" height="50" rx="4" fill="#2A2A2E"/></g><polygon data-role="shape" points="300,790 300,320 360,175 530,130 700,175 760,320 760,790" fill="none" stroke="none"/></svg>
<rect width="1200" height="1800" fill="#5A4A8A" opacity="0.32" data-part="light"/>
<polygon data-role="shape" points="388.2,1259.6 388.2,1008.5 420.2,931 511.1,906.9 601.9,931 634,1008.5 634,1259.6" fill="none" stroke="none"/>
</svg>
