<svg xmlns="http://www.w3.org/2000/svg" viewBox="0 0 1200 1800" width="1200" height="1800" data-id="single.hills.night.high" data-scene="hills" data-sky="night" data-tram="high" data-track="1.75" data-camera="4.5" data-cam-h="4.5" data-distance-m="15.7" data-shape-bbox="406.8 1120.4 386.4 487.9" data-margins="0.339 0.622 0.339 0.107" data-cells="0 0 0 0 0.163 0 0 0.837 0" data-cell="mixed" xmlns:c2pa="http://c2pa.org/manifest"><metadata><c2pa:manifest>AAAWgmp1bWIAAAAeanVtZGMycGEAEQAQgAAAqgA4m3EDYzJwYQAAABZcanVtYgAAAEdqdW1kYzJtYQARABCAAACqADibcQN1cm46YzJwYTo0Mjc2ODg2Yy1hNGNjLTRhOGYtODljYy1jNjYyY2YwOGJlNTEAAAADl2p1bWIAAAApanVtZGMyYXMAEQAQgAAAqgA4m3EDYzJwYS5hc3NlcnRpb25zAAAAALxqdW1iAAAARGp1bWRjYm9yABEAEIAAAKoAOJtxE2MycGEuaW5ncmVkaWVudC52MwAAAAAYYzJzaHZia6IjQpyqkcPbl7M4J4EAAABwY2JvcqNpZGM6Zm9ybWF0bWltYWdlL3N2Zyt4bWxqaW5zdGFuY2VJRHgseG1wOmlpZDpiNjUzMjYzMC03ZDM0LTQ1MzAtYjc4NC00ZGE0MzEwZDJlNGFscmVsYXRpb25zaGlwaHBhcmVudE9mAAAB4mp1bWIAAABBanVtZGNib3IAEQAQgAAAqgA4m3ETYzJwYS5hY3Rpb25zLnYyAAAAABhjMnNoilBtRQHtiUpftR7RTeuO9QAAAZljYm9yomdhY3Rpb25zgqJmYWN0aW9ua2MycGEub3BlbmVkanBhcmFtZXRlcnOha2luZ3JlZGllbnRzgaJjdXJseC1zZWxmI2p1bWJmPWMycGEuYXNzZXJ0aW9ucy9jMnBhLmluZ3JlZGllbnQudjNkaGFzaFggOtFeh/XdrG4I8ovbVBCGDZlHCPKaTO5va7lLbZf/qeOkZmFjdGlvbngdY29tLmFudGhyb3BpYy5jbGF1ZGUucHJvdmlkZWRqcGFyYW1ldGVyc6F4H2NvbS5hbnRocm9waWMub3JpZ2luLWNvbmZpZGVuY2VndW5rbm93bmtkZXNjcmlwdGlvbnhmQ2xhdWRlIHByb3ZpZGVkIHRoaXMgZmlsZSBhdCB0aGUgcmVxdWVzdCBvZiBhIHVzZXIgYW5kIG1heSBoYXZlIGNyZWF0ZWQgb3IgbW9kaWZpZWQgdGhlIGZpbGUgY29udGVudHMubXNvZnR3YXJlQWdlbnShZG5hbWVmQ2xhdWRlcmFsbEFjdGlvbnNJbmNsdWRlZPUAAADIanVtYgAAAEBqdW1kY2JvcgARABCAAACqADibcRNjMnBhLmhhc2guZGF0YQAAAAAYYzJzaBsul4sSkbHbHf9xicdbRCoAAACAY2JvcqVjYWxnZnNoYTI1NmNwYWRMAAAAAAAAAAAAAAAAZGhhc2hYINgMB3wCuRdcON83Lp2zIHoxI5gOcwnyyu+5ArbyXlaQZG5hbWVuanVtYmYgbWFuaWZlc3RqZXhjbHVzaW9uc4GiZXN0YXJ0GQHIZmxlbmd0aBkeBAAAAj5qdW1iAAAAJ2p1bWRjMmNsABEAEIAAAKoAOJtxA2MycGEuY2xhaW0udjIAAAACD2Nib3KlY2FsZ2ZzaGEyNTZpc2lnbmF0dXJleE1zZWxmI2p1bWJmPS9jMnBhL3VybjpjMnBhOjQyNzY4ODZjLWE0Y2MtNGE4Zi04OWNjLWM2NjJjZjA4YmU1MS9jMnBhLnNpZ25hdHVyZWppbnN0YW5jZUlEeCx4bXA6aWlkOmU2NTBlMDk0LTkwZGMtNGNlZi05YWFlLWE4ZjZjMjhhYzM3YXJjcmVhdGVkX2Fzc2VydGlvbnODomN1cmx4LXNlbGYjanVtYmY9YzJwYS5hc3NlcnRpb25zL2MycGEuaW5ncmVkaWVudC52M2RoYXNoWCA60V6H9d2sbgjyi9tUEIYNmUcI8ppM7m9ruUttl/+p46JjdXJseCpzZWxmI2p1bWJmPWMycGEuYXNzZXJ0aW9ucy9jMnBhLmFjdGlvbnMudjJkaGFzaFggQHb3LQehz719ndKoozwdWoiZTqo+HHjTahKMb9NPeCuiY3VybHgpc2VsZiNqdW1iZj1jMnBhLmFzc2VydGlvbnMvYzJwYS5oYXNoLmRhdGFkaGFzaFggqxScakm4Pjy2iZXOwm9h/mZ5Zm7t/SCC3EUlXCuQlmR0Y2xhaW1fZ2VuZXJhdG9yX2luZm+jZG5hbWVvQW50aHJvcGljIEZpbGVzZ3ZlcnNpb25lMS4wLjBrc3BlY1ZlcnNpb25lMi40LjAAABA4anVtYgAAAChqdW1kYzJjcwARABCAAACqADibcQNjMnBhLnNpZ25hdHVyZQAAABAIY2JvctKEWQISogEmGCFZAgowggIGMIIBjaADAgECAhRA5aAK7sI50L64g/oGQgU9Z1UTADAKBggqhkjOPQQDAzBJMRcwFQYDVQQKEw5BbnRocm9waWMsIFBCQzEuMCwGA1UEAxMlQW50aHJvcGljIENvbnRlbnQgQ3JlZGVudGlhbHMgUm9vdCBDQTAeFw0yNjA4MDcxODQzNTZaFw0yODA4MDYxOTQzNTZaMEQxFzAVBgNVBAoTDkFudGhyb3BpYywgUEJDMSkwJwYDVQQDEyBBbnRocm9waWMgQ2xhdWRlIENvbnRlbnQgU2lnbmluZzBZMBMGByqGSM49AgEGCCqGSM49AwEHA0IABJh6CmvLUBgFFNU0vUKlOVtE6djd17L5SuwX0LemFisBM3dkd/3cyjxFA3Qo5S46fX0/ihY0VZ7mfb9KF703t5OjWDBWMA4GA1UdDwEB/wQEAwIHgDAVBgNVHSUEDjAMBgorBgEEAYPoXgIBMAwGA1UdEwEB/wQCMAAwHwYDVR0jBBgwFoAUzlHiBIFOZFsj+OPEz5o+nMHXXMIwCgYIKoZIzj0EAwMDZwAwZAIwMXMdFJ4BetLLVY7ORuE9noqbbAZOZn/aArXyTwFAZfKrPzxF2vPoJNf1+UCdg1XGAjBwX1zd9WGqYkqmL5SFqw1QySjr1zJfpJM9+1rdDwSPLMOPOjKuiXjoU/pUUeG9RwmhY3BhZFkNngAAAAAAAAAAAAAAAAAAAAAAAAAAAAAAAAAAAAAAAAAAAAAAAAAAAAAAAAAAAAAAAAAAAAAAAAAAAAAAAAAAAAAAAAAAAAAAAAAAAAAAAAAAAAAAAAAAAAAAAAAAAAAAAAAAAAAAAAAAAAAAAAAAAAAAAAAAAAAAAAAAAAAAAAAAAAAAAAAAAAAAAAAAAAAAAAAAAAAAAAAAAAAAAAAAAAAAAAAAAAAAAAAAAAAAAAAAAAAAAAAAAAAAAAAAAAAAAAAAAAAAAAAAAAAAAAAAAAAAAAAAAAAAAAAAAAAAAAAAAAAAAAAAAAAAAAAAAAAAAAAAAAAAAAAAAAAAAAAAAAAAAAAAAAAAAAAAAAAAAAAAAAAAAAAAAAAAAAAAAAAAAAAAAAAAAAAAAAAAAAAAAAAAAAAAAAAAAAAAAAAAAAAAAAAAAAAAAAAAAAAAAAAAAAAAAAAAAAAAAAAAAAAAAAAAAAAAAAAAAAAAAAAAAAAAAAAAAAAAAAAAAAAAAAAAAAAAAAAAAAAAAAAAAAAAAAAAAAAAAAAAAAAAAAAAAAAAAAAAAAAAAAAAAAAAAAAAAAAAAAAAAAAAAAAAAAAAAAAAAAAAAAAAAAAAAAAAAAAAAAAAAAAAAAAAAAAAAAAAAAAAAAAAAAAAAAAAAAAAAAAAAAAAAAAAAAAAAAAAAAAAAAAAAAAAAAAAAAAAAAAAAAAAAAAAAAAAAAAAAAAAAAAAAAAAAAAAAAAAAAAAAAAAAAAAAAAAAAAAAAAAAAAAAAAAAAAAAAAAAAAAAAAAAAAAAAAAAAAAAAAAAAAAAAAAAAAAAAAAAAAAAAAAAAAAAAAAAAAAAAAAAAAAAAAAAAAAAAAAAAAAAAAAAAAAAAAAAAAAAAAAAAAAAAAAAAAAAAAAAAAAAAAAAAAAAAAAAAAAAAAAAAAAAAAAAAAAAAAAAAAAAAAAAAAAAAAAAAAAAAAAAAAAAAAAAAAAAAAAAAAAAAAAAAAAAAAAAAAAAAAAAAAAAAAAAAAAAAAAAAAAAAAAAAAAAAAAAAAAAAAAAAAAAAAAAAAAAAAAAAAAAAAAAAAAAAAAAAAAAAAAAAAAAAAAAAAAAAAAAAAAAAAAAAAAAAAAAAAAAAAAAAAAAAAAAAAAAAAAAAAAAAAAAAAAAAAAAAAAAAAAAAAAAAAAAAAAAAAAAAAAAAAAAAAAAAAAAAAAAAAAAAAAAAAAAAAAAAAAAAAAAAAAAAAAAAAAAAAAAAAAAAAAAAAAAAAAAAAAAAAAAAAAAAAAAAAAAAAAAAAAAAAAAAAAAAAAAAAAAAAAAAAAAAAAAAAAAAAAAAAAAAAAAAAAAAAAAAAAAAAAAAAAAAAAAAAAAAAAAAAAAAAAAAAAAAAAAAAAAAAAAAAAAAAAAAAAAAAAAAAAAAAAAAAAAAAAAAAAAAAAAAAAAAAAAAAAAAAAAAAAAAAAAAAAAAAAAAAAAAAAAAAAAAAAAAAAAAAAAAAAAAAAAAAAAAAAAAAAAAAAAAAAAAAAAAAAAAAAAAAAAAAAAAAAAAAAAAAAAAAAAAAAAAAAAAAAAAAAAAAAAAAAAAAAAAAAAAAAAAAAAAAAAAAAAAAAAAAAAAAAAAAAAAAAAAAAAAAAAAAAAAAAAAAAAAAAAAAAAAAAAAAAAAAAAAAAAAAAAAAAAAAAAAAAAAAAAAAAAAAAAAAAAAAAAAAAAAAAAAAAAAAAAAAAAAAAAAAAAAAAAAAAAAAAAAAAAAAAAAAAAAAAAAAAAAAAAAAAAAAAAAAAAAAAAAAAAAAAAAAAAAAAAAAAAAAAAAAAAAAAAAAAAAAAAAAAAAAAAAAAAAAAAAAAAAAAAAAAAAAAAAAAAAAAAAAAAAAAAAAAAAAAAAAAAAAAAAAAAAAAAAAAAAAAAAAAAAAAAAAAAAAAAAAAAAAAAAAAAAAAAAAAAAAAAAAAAAAAAAAAAAAAAAAAAAAAAAAAAAAAAAAAAAAAAAAAAAAAAAAAAAAAAAAAAAAAAAAAAAAAAAAAAAAAAAAAAAAAAAAAAAAAAAAAAAAAAAAAAAAAAAAAAAAAAAAAAAAAAAAAAAAAAAAAAAAAAAAAAAAAAAAAAAAAAAAAAAAAAAAAAAAAAAAAAAAAAAAAAAAAAAAAAAAAAAAAAAAAAAAAAAAAAAAAAAAAAAAAAAAAAAAAAAAAAAAAAAAAAAAAAAAAAAAAAAAAAAAAAAAAAAAAAAAAAAAAAAAAAAAAAAAAAAAAAAAAAAAAAAAAAAAAAAAAAAAAAAAAAAAAAAAAAAAAAAAAAAAAAAAAAAAAAAAAAAAAAAAAAAAAAAAAAAAAAAAAAAAAAAAAAAAAAAAAAAAAAAAAAAAAAAAAAAAAAAAAAAAAAAAAAAAAAAAAAAAAAAAAAAAAAAAAAAAAAAAAAAAAAAAAAAAAAAAAAAAAAAAAAAAAAAAAAAAAAAAAAAAAAAAAAAAAAAAAAAAAAAAAAAAAAAAAAAAAAAAAAAAAAAAAAAAAAAAAAAAAAAAAAAAAAAAAAAAAAAAAAAAAAAAAAAAAAAAAAAAAAAAAAAAAAAAAAAAAAAAAAAAAAAAAAAAAAAAAAAAAAAAAAAAAAAAAAAAAAAAAAAAAAAAAAAAAAAAAAAAAAAAAAAAAAAAAAAAAAAAAAAAAAAAAAAAAAAAAAAAAAAAAAAAAAAAAAAAAAAAAAAAAAAAAAAAAAAAAAAAAAAAAAAAAAAAAAAAAAAAAAAAAAAAAAAAAAAAAAAAAAAAAAAAAAAAAAAAAAAAAAAAAAAAAAAAAAAAAAAAAAAAAAAAAAAAAAAAAAAAAAAAAAAAAAAAAAAAAAAAAAAAAAAAAAAAAAAAAAAAAAAAAAAAAAAAAAAAAAAAAAAAAAAAAAAAAAAAAAAAAAAAAAAAAAAAAAAAAAAAAAAAAAAAAAAAAAAAAAAAAAAAAAAAAAAAAAAAAAAAAAAAAAAAAAAAAAAAAAAAAAAAAAAAAAAAAAAAAAAAAAAAAAAAAAAAAAAAAAAAAAAAAAAAAAAAAAAAAAAAAAAAAAAAAAAAAAAAAAAAAAAAAAAAAAAAAAAAAAAAAAAAAAAAAAAAAAAAAAAAAAAAAAAAAAAAAAAAAAAAAAAAAAAAAAAAAAAAAAAAAAAAAAAAAAAAAAAAAAAAAAAAAAAAAAAAAAAAAAAAAAAAAAAAAAAAAAAAAAAAAAAAAAAAAAAAAAAAAAAAAAAAAAAAAAAAAAAAAAAAAAAAAAAAAAAAAAAAAAAAAAAAAAAAAAAAAAAAAAAAAAAAAAAAAAAAAAAAAAAAAAAAAAAAAAAAAAAAAAAAAAAAAAAAAAAAAAAAAAAAAAAAAAAAAAAAAAAAAAAAAAAAAAAAAAAAAAAAAAAAAAAAAAAAAAAAAAAAAAAAAAAAAAAAAAAAAAAAAAAAAAAAAAAAAAAAAAAAAAAAAAAAAAAAAAAAAAAAAAAAAAAAAAAAAAAAAAAAAAAAAAAAAAAAAAAAAAAAAAAAAAAAAAAAAAAAAAAAAAAAAAAAAAAAAAAAAAAAAAAAAAAAAAAAAAAAAAAAAAAAAAAAAAAAAAAAAAAAAAAAAAAAAAAAAAAAAAAAAAAAAAAAAAAAAAAAAAAAAAAAAAAAAAAAAAAAAAAAAAAAAAAAAAAAAAAAAAAAAAAAAAAAAAAAAAAAAAAAAAAAAAAAAAAAAAAAAAAAAAAAAAAAAAAAAAAAAAAAAAAAAAAAAAAAAAAAAAAAAAAAAAAAAAAAAAAAAAAAAAAAAAAAAAAAAAAAAAAAAAAAAAAAAAAAAAAAAAAAAAAAAAAAAAAAAAAAAAAAAAAAAAAAAAAAAAAAAAAAAAAAAAAAAAAAAAAAAAAAAAAAAAAAAAAAAAAAAAAAAAAAAAAAAAAAAAAAAAAAAAAAAAAAAAAAAAAAAAAAAAAAAAAAAAAAAAAAAAAAAAAAAAAAAAAAAAAAAAAAAAAAAAAAAAAAAAAAAAAAAAAAAAAAAAAAAAAAAAAAAAAAAAAAAAAAAAAAAAAAAAAAAAAAAAAAAAAAAAAAAAAAAAAAAAAAAAAAAAAAAAAAAAAAAAAAAAAAAAAAAAAAAAAAAAAAAAAAAAAAAAAAAAAAAAAAAAAAAAAAAAAAAAAAAAAAAAAAAAAAAAAAAAAAAAAAAAAAAAAAAAAAAAAAAAAAAAAAAAAAAAAAAAAAAAAAAAAAAAAAAAAAAAAAAAAAAAAAAAAAAAAAAAAAAAAAAAAAAAAAAAAAAAAAAAAAAAAAAAAAAAAAAAAAAAAAAAAAAAAAAAAAAAAAAAAAAAAAAAAAAAAAAAAAAAAAAAAAAAAAAAAAAAAAAAAAAAAAAAAAAAAAAAAAAAAAAAAAAAAAAAAAAAAAAAAAAAAAAAAAAAAAAAAAAAAAAAAAAAAAAAAAAAAAAAAAAAAAAAAAAAAAAAAAAAAAAAAAAAAAAAAAAAAAAAAAAAAAAAAAAAAAAAAAAAAAAAAAAAAAAAAAAAAAAAAAAAAAAAAAAAAAAAAAAAAAAAAAAAAAAAAAAAAAAAAAAAAAAAAAAAAAAAAAAAAAAAAAAAAAAAAAAAAAAAAAAAAAAAAAAAAAAAAAAAAAAAAAAAAAAAAAAAAAAAAAAAAAAAAAAAAAAAAAAAAAAAAAAAAAAAAAAAAAAAAAAAAAAAAAAAAAAAAAAAAAAAAAAAPZYQBLaCNtF5Fc5cofCskTY+e1eTqk8ZUY0sqMYBg9t5/25qPvHn0v2SUlE88Sxj6kbsvA5Fg96ghOVokOXJTW/9LI=</c2pa:manifest></metadata>
<svg x="0" y="0" width="1200" height="1800" viewBox="0 0 1800 1200" preserveAspectRatio="xMidYMid slice" data-part="sky"><defs><linearGradient id="sky-g" x1="0" y1="0" x2="0" y2="1"><stop offset="0" stop-color="#060B1E"></stop><stop offset="1" stop-color="#1B2A55"></stop></linearGradient></defs><rect width="1800" height="1200" fill="url(#sky-g)"></rect><circle cx="1360" cy="240" r="90" fill="#F3EFDD"></circle><circle cx="200" cy="150" r="4" fill="#FFFFFF" opacity="0.85"></circle><circle cx="520" cy="90" r="4" fill="#FFFFFF" opacity="0.85"></circle><circle cx="860" cy="210" r="4" fill="#FFFFFF" opacity="0.85"></circle><circle cx="1040" cy="120" r="4" fill="#FFFFFF" opacity="0.85"></circle><circle cx="1620" cy="160" r="4" fill="#FFFFFF" opacity="0.85"></circle><circle cx="300" cy="420" r="4" fill="#FFFFFF" opacity="0.85"></circle><circle cx="1700" cy="480" r="4" fill="#FFFFFF" opacity="0.85"></circle><circle cx="700" cy="380" r="4" fill="#FFFFFF" opacity="0.85"></circle><circle cx="1220" cy="430" r="4" fill="#FFFFFF" opacity="0.85"></circle><circle cx="980" cy="520" r="4" fill="#FFFFFF" opacity="0.85"></circle></svg>
<rect x="0" y="951" width="1200" height="849" fill="#5E9548" data-part="ground"></rect>
<svg x="-324.8" y="-189" width="2700" height="1800" viewBox="0 0 1800 1200" preserveAspectRatio="xMinYMin meet" data-part="scene"><path d="M0 760 Q450 480 900 620 Q1350 400 1800 600 V760 Z" fill="#A9C98A"></path><path d="M0 760 Q300 560 700 700 Q1200 560 1800 720 V760 Z" fill="#7FAF62"></path><g transform="translate(320 690) scale(1)"><rect x="-6" y="0" width="12" height="40" fill="#5B4632"></rect><circle cx="0" cy="-20" r="46" fill="#3F7A3A"></circle></g><g transform="translate(1450 700) scale(0.8)"><rect x="-6" y="0" width="12" height="40" fill="#5B4632"></rect><circle cx="0" cy="-20" r="46" fill="#3F7A3A"></circle></g><g transform="translate(1550 720) scale(1.1)"><rect x="-6" y="0" width="12" height="40" fill="#5B4632"></rect><circle cx="0" cy="-20" r="46" fill="#3F7A3A"></circle></g><rect x="0" y="760" width="1800" height="440" fill="#5E9548"></rect></svg>
<g data-part="road"><polygon points="-681.7,1860 914.1,1860 1021.8,978.3 973.8,978.3" fill="#9B937F"></polygon><polygon points="-590.8,1860 823.2,1860 1019.1,978.3 976.6,978.3" fill="#7C7468"></polygon><polygon points="102,1860 130.3,1860 308.9,1678.6 286.3,1678.6" fill="#E8E4D8" opacity="0.6"></polygon><polygon points="409.2,1557.5 428.1,1557.5 513.3,1471 497.1,1471" fill="#E8E4D8" opacity="0.6"></polygon><polygon points="563,1406.1 577.2,1406.1 626.9,1355.6 614.3,1355.6" fill="#E8E4D8" opacity="0.6"></polygon><polygon points="655.3,1315.1 666.7,1315.1 699.2,1282.1 688.9,1282.1" fill="#E8E4D8" opacity="0.6"></polygon><polygon points="716.9,1254.5 726.4,1254.5 749.3,1231.2 740.6,1231.2" fill="#E8E4D8" opacity="0.6"></polygon><polygon points="760.9,1211.2 769,1211.2 786.1,1193.8 778.5,1193.8" fill="#E8E4D8" opacity="0.6"></polygon><polygon points="793.9,1178.7 801,1178.7 814.2,1165.3 807.5,1165.3" fill="#E8E4D8" opacity="0.6"></polygon><polygon points="819.6,1153.4 825.9,1153.4 836.4,1142.7 830.4,1142.7" fill="#E8E4D8" opacity="0.6"></polygon><polygon points="840.2,1133.2 845.8,1133.2 854.4,1124.5 849,1124.5" fill="#E8E4D8" opacity="0.6"></polygon><polygon points="857,1116.6 862.1,1116.6 869.2,1109.4 864.3,1109.4" fill="#E8E4D8" opacity="0.6"></polygon><polygon points="871,1102.8 875.7,1102.8 881.7,1096.7 877.1,1096.7" fill="#E8E4D8" opacity="0.6"></polygon><polygon points="882.8,1091.1 887.2,1091.1 892.3,1086 888.1,1086" fill="#E8E4D8" opacity="0.6"></polygon><polygon points="893,1081.1 897,1081.1 901.5,1076.6 897.6,1076.6" fill="#E8E4D8" opacity="0.6"></polygon><polygon points="901.8,1072.5 905.6,1072.5 909.4,1068.5 905.8,1068.5" fill="#E8E4D8" opacity="0.6"></polygon><polygon points="909.5,1064.9 913.1,1064.9 916.4,1061.4 913,1061.4" fill="#E8E4D8" opacity="0.6"></polygon><polygon points="916.3,1058.2 919.6,1058.2 922.7,1055.1 919.4,1055.1" fill="#E8E4D8" opacity="0.6"></polygon><polygon points="922.4,1052.2 925.5,1052.2 928.2,1049.5 925.1,1049.5" fill="#E8E4D8" opacity="0.6"></polygon><polygon points="927.8,1046.9 930.7,1046.9 933.2,1044.4 930.3,1044.4" fill="#E8E4D8" opacity="0.6"></polygon><polygon points="932.6,1042.1 935.5,1042.1 937.7,1039.9 934.9,1039.9" fill="#E8E4D8" opacity="0.6"></polygon><polygon points="937,1037.8 939.7,1037.8 941.7,1035.7 939.1,1035.7" fill="#E8E4D8" opacity="0.6"></polygon><polygon points="941,1033.8 943.6,1033.8 945.4,1032 942.9,1032" fill="#E8E4D8" opacity="0.6"></polygon><polygon points="944.7,1030.2 947.2,1030.2 948.8,1028.5 946.4,1028.5" fill="#E8E4D8" opacity="0.6"></polygon><polygon points="948.1,1026.9 950.4,1026.9 951.9,1025.4 949.6,1025.4" fill="#E8E4D8" opacity="0.6"></polygon><polygon points="951.1,1023.9 953.4,1023.9 954.8,1022.5 952.6,1022.5" fill="#E8E4D8" opacity="0.6"></polygon><polygon points="954,1021.1 956.2,1021.1 957.5,1019.8 955.3,1019.8" fill="#E8E4D8" opacity="0.6"></polygon><polygon points="-388.8,1860 -85.8,1860 991.7,978.3 982.6,978.3" fill="#000000" opacity="0.06"></polygon><polygon points="-388.8,1860 -374.7,1860 983.1,978.3 982.6,978.3" fill="#B9BCC2"></polygon><polygon points="-100,1860 -85.8,1860 991.7,978.3 991.3,978.3" fill="#B9BCC2"></polygon><polygon points="318.2,1860 621.2,1860 1013,978.3 1003.9,978.3" fill="#000000" opacity="0.06"></polygon><polygon points="318.2,1860 332.3,1860 1004.3,978.3 1003.9,978.3" fill="#B9BCC2"></polygon><polygon points="607,1860 621.2,1860 1013,978.3 1012.6,978.3" fill="#B9BCC2"></polygon></g>
<ellipse cx="600" cy="1646.7" rx="241.9" ry="25.2" fill="#000000" opacity="0.25"></ellipse>
<svg x="348" y="931.9" width="504" height="806.4" viewBox="0 0 600 960" preserveAspectRatio="xMidYMid meet" data-part="tram"><path d="M70 392 L110 90 Q300 50 490 90 L530 392 Q530 224 300 224 Q70 224 70 392 Z" fill="#D9CBA3"></path>
<path d="M240 120 L300 180 L360 120" stroke="#2A2A2E" stroke-width="7" fill="none" stroke-linecap="round"></path><rect x="255" y="112" width="90" height="12" rx="4" fill="#2A2A2E"></rect>
<rect x="250" y="200" width="100" height="16" rx="4" fill="#B9AA85"></rect><g transform="translate(0 110) scale(1 0.88)">
<path d="M70 320 Q70 130 300 130 Q530 130 530 320 V790 H70 Z" fill="#EFE3C3"></path>
<path d="M70 470 H530 V790 H70 Z" fill="#C8332B"></path>
<rect x="70" y="560" width="460" height="26" fill="#EFE3C3"></rect>
<path d="M105 225 Q300 190 495 225 V415 Q300 440 105 415 Z" fill="#8FB7CF"></path>
<path d="M120 235 Q300 205 480 235 V300 Q300 325 120 300 Z" fill="#FFFFFF" opacity="0.18"></path>
<rect x="200" y="168" width="200" height="36" rx="6" fill="#2A2A2E"></rect>
<rect x="215" y="180" width="90" height="12" rx="2" fill="#F2B84B"></rect>
<circle cx="300" cy="650" r="42" fill="#F6EFD2" stroke="#2A2A2E" stroke-width="6"></circle>
<circle cx="125" cy="710" r="17" fill="#E8A33C"></circle><circle cx="475" cy="710" r="17" fill="#E8A33C"></circle>
<rect x="60" y="760" width="480" height="40" rx="6" fill="#2A2A2E"></rect>
<rect x="95" y="800" width="410" height="42" fill="#1B1B1E"></rect>
<rect x="270" y="796" width="60" height="50" rx="4" fill="#2A2A2E"></rect></g><polygon data-role="shape" points="70,805.2 70,391.6 130,264 300,224.4 470,264 530,391.6 530,805.2" fill="none" stroke="none"></polygon></svg>
<rect width="1200" height="1800" fill="#0E1838" opacity="0.55" data-part="light"></rect>
<polygon data-role="shape" points="406.8,1608.3 406.8,1260.8 457.2,1153.7 600,1120.4 742.8,1153.7 793.2,1260.8 793.2,1608.3" fill="none" stroke="none"></polygon>
</svg>