<?xml version="1.0" encoding="utf-8"?>
<!-- Generator: Adobe Illustrator 25.2.3, SVG Export Plug-In . SVG Version: 6.00 Build 0)  -->
<svg version="1.1" xmlns="http://www.w3.org/2000/svg" xmlns:xlink="http://www.w3.org/1999/xlink" x="0px" y="0px"
	 viewBox="0 0 1920 1920" style="enable-background:new 0 0 1920 1920;" xml:space="preserve">
<style type="text/css">
	.st0{display:none;}
	.st1{fill:#002E42;}
	.st2{fill:#3FA9F5;}
	.st3{fill:#002E42;stroke:#3FA9F5;stroke-width:65;stroke-miterlimit:10;}
	.st4{fill:#364B59;stroke:#3FA9F5;stroke-width:65;stroke-miterlimit:10;}
	.st5{fill:none;stroke:#3FA9F5;stroke-width:65;stroke-miterlimit:10;}
	.st6{fill:url(#lense_2_);stroke:#3FA9F5;stroke-width:65;stroke-miterlimit:10;}
	.st7{display:inline;fill:#FFFFFF;stroke:#000000;stroke-width:65;stroke-miterlimit:10;}
	.st8{display:inline;fill:none;stroke:#000000;stroke-width:65;stroke-miterlimit:10;}
	.st9{display:inline;fill:url(#lense_3_);stroke:#3FA9F5;stroke-width:65;stroke-miterlimit:10;}
	.st10{display:inline;fill:none;stroke:url(#SVGID_1_);stroke-miterlimit:10;}
	.st11{display:inline;fill:#40A9F5;stroke:#FFFFFF;stroke-width:65;stroke-miterlimit:10;}
	.st12{display:inline;fill:#364B59;stroke:#FFFFFF;stroke-width:65;stroke-miterlimit:10;}
	.st13{display:inline;fill:#E8E854;stroke:#FFFFFF;stroke-width:65;stroke-miterlimit:10;}
	.st14{display:inline;fill:#E83F3C;stroke:#FFFFFF;stroke-width:65;stroke-miterlimit:10;}
	.st15{display:inline;fill:#007A9B;stroke:#FFFFFF;stroke-width:65;stroke-miterlimit:10;}
	.st16{display:inline;fill:#F5706E;stroke:#FFFFFF;stroke-width:65;stroke-miterlimit:10;}
	.st17{display:inline;fill:#002E42;stroke:#FFFFFF;stroke-width:65;stroke-miterlimit:10;}
	.st18{display:inline;fill:#003744;stroke:#FFFFFF;stroke-width:65;stroke-miterlimit:10;}
	.st19{display:inline;}
	.st20{fill:#004760;stroke:#002E42;stroke-width:75;stroke-miterlimit:10;}
	.st21{display:inline;fill:#002E42;}
	.st22{display:inline;fill:#007A9B;}
	.st23{display:inline;fill:#FFFFFF;stroke:#004760;stroke-width:100;stroke-miterlimit:10;}
	.st24{display:inline;fill:#007A9B;stroke:#002E42;stroke-width:100;stroke-miterlimit:10;}
	.st25{display:inline;fill:#FBB03B;stroke:#002E42;stroke-width:50;stroke-miterlimit:10;}
</style>
<g id="Simple" class="st0">
</g>
<g id="Copy_and_Tagline">
	<g>
		<path class="st1" d="M498.64,1718.76l59.8-4.99l2.48,29.73l-95.48,7.96l-12.53-150.32l35.68-2.97L498.64,1718.76z"/>
		<path class="st1" d="M673.14,1683.7l-71.58,5.97c0.09,1.99,0.2,3.72,0.32,5.18c0.66,7.93,3.27,13.74,7.83,17.42
			c4.56,3.69,9.77,5.28,15.65,4.79c10.94-0.91,17.02-7.3,18.25-19.15l29.92-0.28c-6.15,26.39-21.93,40.64-47.33,42.76
			c-11.09,0.92-20.69-0.51-28.8-4.31c-8.12-3.8-15.04-9.74-20.78-17.84c-5.74-8.1-9.1-18.09-10.1-29.99
			c-1.48-17.69,2.38-32.39,11.57-44.1c9.19-11.71,21.71-18.22,37.57-19.54c14.32-1.19,27.02,2.83,38.1,12.07
			C664.84,1645.93,671.3,1661.6,673.14,1683.7z M599.86,1670.62l39.53-3.3c-2.3-15.18-9.22-22.3-20.74-21.34
			C606.32,1647.02,600.06,1655.23,599.86,1670.62z"/>
		<path class="st1" d="M727.88,1643.32l3.92,47.02c0.49,5.88,1.69,9.73,3.61,11.56c1.92,1.84,6.13,2.48,12.64,1.94
			c3-0.25,6.46-0.69,10.38-1.31l2.03,24.34c-9.41,2.41-16.21,3.79-20.39,4.14c-13.66,1.14-23.57-0.68-29.73-5.45
			c-6.16-4.77-9.82-14.02-10.96-27.75l-4.32-51.76l-17.62,1.47l-2.13-25.55l19.49-1.62l-0.09-33.04l28.12-4.56l2.92,35.02l23.9-1.99
			l2.13,25.55L727.88,1643.32z"/>
		<path class="st1" d="M853.53,1634.17l-23.36,8.38c-3.63-9.83-11.28-14.25-22.95-13.28c-11.01,0.92-16.24,4.72-15.68,11.42
			c0.22,2.65,1.4,4.68,3.56,6.09c2.15,1.41,7.53,2.31,16.14,2.69c12.84,0.62,22.4,1.77,28.68,3.46c6.28,1.69,11.41,5,15.41,9.92
			c4,4.92,6.31,11.19,6.95,18.83c0.96,11.45-2.62,21.14-10.72,29.06c-8.1,7.92-19.97,12.53-35.61,13.84
			c-28.34,2.36-46.18-7.2-53.51-28.69l27.3-6.38c3.11,9.79,11.75,14.1,25.92,12.92c5.43-0.45,9.94-1.81,13.52-4.07
			c3.58-2.26,5.23-5.05,4.96-8.36c-0.43-5.15-4.83-7.86-13.2-8.11c-22.7-0.89-37.83-3.96-45.4-9.21
			c-7.57-5.25-11.79-13.08-12.66-23.51c-0.88-10.57,2.5-19.65,10.15-27.24c7.65-7.59,18.89-12,33.72-13.23
			c11.75-0.98,21.34,0.55,28.77,4.58C842.92,1617.31,848.94,1624.28,853.53,1634.17z"/>
		<path class="st1" d="M918.77,1683.73l59.8-4.99l2.48,29.73l-95.48,7.96l-12.53-150.32l35.68-2.98L918.77,1683.73z"/>
		<path class="st1" d="M1094.58,1699.01l-31.83,2.65c-1.4-4.32-2.39-10.07-2.99-17.27c-4.91,8.39-10.02,14.12-15.34,17.19
			c-5.32,3.07-11.49,4.89-18.53,5.48c-10.41,0.87-19.06-1.26-25.94-6.38c-6.89-5.12-10.73-12.45-11.52-21.99
			c-0.58-6.97,0.75-13.55,4-19.74c3.25-6.19,8.87-11.29,16.88-15.33c8-4.03,22.9-7.77,44.68-11.21l-0.53-6.39
			c-0.9-10.79-6.73-15.74-17.49-14.84c-11.49,0.96-17.45,6.89-17.86,17.79l-30.52-0.34c0.93-12.79,6.17-22.25,15.71-28.37
			c9.54-6.12,20.63-9.7,33.26-10.76c7.56-0.63,14.76-0.34,21.58,0.86c6.83,1.21,12.26,3.42,16.3,6.63
			c4.04,3.21,6.88,6.73,8.53,10.54c1.65,3.82,2.88,10.61,3.69,20.37l4.21,50.44C1091.67,1688.05,1092.91,1694.94,1094.58,1699.01z
			 M1055.34,1648.61c-22.72,4.19-33.59,12.08-32.62,23.68c0.32,3.89,1.81,7.15,4.46,9.77c2.65,2.62,6.21,3.75,10.67,3.38
			c5.78-0.48,10.43-3.29,13.94-8.43c3.51-5.13,4.98-11.23,4.39-18.27L1055.34,1648.61z"/>
		<path class="st1" d="M1122.82,1734.47l-12.41-148.78l30.17-2.52l1.36,16.3c4.54-12.87,13.79-19.89,27.74-21.05
			c12.04-1,22.3,3,30.78,12.01c8.48,9.02,13.48,22.74,15.02,41.16c1.63,19.6-1.01,34.7-7.92,45.29
			c-6.92,10.6-16.58,16.41-28.98,17.44c-12.55,1.05-21.92-3.09-28.09-12.41l4.16,49.89L1122.82,1734.47z M1147.46,1645.59
			c0.66,7.86,1.58,13.25,2.79,16.18c1.2,2.93,3.45,5.46,6.73,7.59s6.72,3.04,10.32,2.74c4.48-0.37,8.29-3,11.43-7.88
			c3.14-4.88,4.06-15.14,2.76-30.78c-1.83-21.95-8.55-32.44-20.15-31.48c-4.4,0.37-8.25,2.65-11.52,6.84
			c-3.27,4.19-4.52,10.95-3.74,20.27L1147.46,1645.59z"/>
		<path class="st1" d="M1317.6,1595.47l-23.36,8.38c-3.63-9.82-11.28-14.25-22.95-13.28c-11.01,0.92-16.24,4.72-15.68,11.42
			c0.22,2.65,1.41,4.68,3.56,6.09c2.15,1.41,7.53,2.31,16.14,2.69c12.84,0.62,22.4,1.77,28.68,3.47c6.28,1.69,11.41,5,15.41,9.91
			c4,4.92,6.31,11.19,6.95,18.83c0.96,11.45-2.62,21.14-10.72,29.06c-8.1,7.92-19.97,12.53-35.61,13.84
			c-28.34,2.36-46.18-7.2-53.51-28.69l27.3-6.38c3.11,9.79,11.75,14.1,25.92,12.92c5.43-0.45,9.94-1.81,13.52-4.07
			c3.58-2.26,5.23-5.05,4.96-8.36c-0.43-5.15-4.83-7.86-13.2-8.11c-22.7-0.89-37.83-3.96-45.41-9.21
			c-7.57-5.25-11.79-13.08-12.66-23.51c-0.88-10.57,2.5-19.65,10.15-27.24c7.65-7.59,18.89-12,33.72-13.23
			c11.75-0.98,21.34,0.55,28.77,4.59C1306.99,1578.62,1313,1585.58,1317.6,1595.47z"/>
		<path class="st1" d="M1443.79,1619.44l-71.58,5.97c0.09,1.99,0.2,3.72,0.32,5.19c0.66,7.93,3.27,13.74,7.83,17.42
			c4.56,3.69,9.77,5.29,15.65,4.79c10.94-0.91,17.02-7.3,18.25-19.15l29.92-0.28c-6.15,26.39-21.93,40.64-47.33,42.76
			c-11.09,0.92-20.69-0.51-28.8-4.31c-8.12-3.8-15.04-9.74-20.78-17.84c-5.74-8.1-9.1-18.09-10.1-29.99
			c-1.48-17.69,2.38-32.39,11.57-44.1c9.19-11.71,21.71-18.22,37.57-19.54c14.32-1.19,27.02,2.83,38.1,12.07
			C1435.49,1581.67,1441.95,1597.34,1443.79,1619.44z M1370.51,1606.36l39.53-3.3c-2.3-15.18-9.22-22.3-20.74-21.34
			C1376.97,1582.76,1370.71,1590.97,1370.51,1606.36z"/>
		<path class="st1" d="M1305.45,1760.7l-12.25,1.02l-1.02-12.25l12.25-1.02L1305.45,1760.7z"/>
		<path class="st1" d="M1348.6,1741.97c-0.05,4.77-1.61,8.75-4.65,11.94c-3.05,3.2-7.17,5.01-12.38,5.44
			c-5.66,0.47-10.42-1.01-14.28-4.46c-3.87-3.44-6.06-8.29-6.58-14.56c-0.52-6.26,0.87-11.5,4.18-15.7c3.31-4.2,8-6.56,14.08-7.06
			c4.89-0.41,9.06,0.72,12.52,3.39s5.54,6.19,6.25,10.58l-10.97,1.55c-0.77-4.78-3.06-7.01-6.87-6.69
			c-4.68,0.39-6.7,4.42-6.06,12.08c0.42,5.1,1.35,8.29,2.77,9.55c1.42,1.26,3.07,1.82,4.95,1.66c3.65-0.3,5.63-2.8,5.96-7.48
			L1348.6,1741.97z"/>
		<path class="st1" d="M1369.38,1714.21c6.1-0.51,11.02,1.09,14.78,4.79c3.75,3.71,5.88,8.56,6.38,14.56
			c0.49,5.92-0.87,11.01-4.09,15.25c-3.22,4.25-7.78,6.62-13.66,7.11c-5.7,0.48-10.43-1.1-14.17-4.73
			c-3.75-3.63-5.87-8.5-6.38-14.64c-0.35-4.25,0.12-7.93,1.41-11.04c1.3-3.1,3.21-5.68,5.76-7.72S1365.26,1714.56,1369.38,1714.21z
			 M1370.34,1721.92c-2.24,0.19-3.85,1.19-4.84,3.02c-0.99,1.83-1.27,5.32-0.84,10.47c0.39,4.73,1.22,8.08,2.47,10.05
			c1.25,1.97,3.03,2.86,5.32,2.67c2-0.17,3.55-1.18,4.64-3.04c1.09-1.86,1.43-5.26,1.02-10.21c-0.44-5.26-1.28-8.78-2.53-10.57
			C1374.33,1722.53,1372.58,1721.73,1370.34,1721.92z"/>
		<path class="st1" d="M1456.86,1748.08l-11.81,0.99l-1.85-22.16c-0.26-3.12-0.52-5.14-0.78-6.06c-0.26-0.92-0.81-1.66-1.64-2.22
			c-0.83-0.55-1.93-0.78-3.31-0.66c-1.29,0.11-2.58,0.68-3.85,1.72c-1.27,1.04-1.72,3.75-1.36,8.14l1.85,22.16l-11.81,0.99
			l-1.85-22.16c-0.27-3.2-0.58-5.25-0.95-6.17c-0.37-0.91-0.98-1.63-1.84-2.14c-0.85-0.51-1.9-0.72-3.14-0.62
			c-2.04,0.17-3.5,0.94-4.38,2.3c-0.88,1.36-1.17,3.88-0.87,7.56l1.85,22.16l-11.46,0.96l-3.34-40.04l11.1-0.93l0.51,6.1
			c1.49-4.78,5.06-7.41,10.7-7.88c5.11-0.43,9,1.58,11.66,6.01c1.83-4.81,5.51-7.45,11.04-7.91c2.64-0.22,4.96,0.13,6.95,1.06
			c1.99,0.92,3.47,2.23,4.44,3.9c0.96,1.68,1.63,4.64,1.98,8.9L1456.86,1748.08z"/>
	</g>
	<polygon id="tripod" class="st2" points="271,1920 330.47,1505.71 1460.09,1413.27 1754,1920 1655,1920 1422,1489 406,1570 
		376,1920 	"/>
	<ellipse id="pvc-front" class="st3" cx="946.1" cy="740.3" rx="779.9" ry="702.15"/>
	<polygon id="sensor-board" class="st4" points="411.01,365.66 1441.5,296.18 1547.36,1047.13 360.56,1126.55 	"/>
	<path id="mount" class="st5" d="M728.59,1101.72l-43.57,300.56c0,0,83.42,32.96,269.84,42.23
		c127.71,8.24,253.36-43.26,253.36-43.26l0.06-330.96L728.59,1101.72z"/>
	<linearGradient id="lense_2_" gradientUnits="userSpaceOnUse" x1="946.105" y1="990.3098" x2="946.105" y2="518.126">
		<stop  offset="1.424501e-03" style="stop-color:#001C4C"/>
		<stop  offset="0.1272" style="stop-color:#021D4E"/>
		<stop  offset="0.1725" style="stop-color:#092255"/>
		<stop  offset="0.2048" style="stop-color:#142A60"/>
		<stop  offset="0.2309" style="stop-color:#253671"/>
		<stop  offset="0.253" style="stop-color:#3B4586"/>
		<stop  offset="0.2702" style="stop-color:#52559D"/>
		<stop  offset="0.2827" style="stop-color:#454386"/>
		<stop  offset="0.3012" style="stop-color:#362F6B"/>
		<stop  offset="0.3224" style="stop-color:#291E55"/>
		<stop  offset="0.3471" style="stop-color:#201244"/>
		<stop  offset="0.3777" style="stop-color:#190939"/>
		<stop  offset="0.4207" style="stop-color:#150332"/>
		<stop  offset="0.5399" style="stop-color:#140230"/>
		<stop  offset="0.6167" style="stop-color:#170937"/>
		<stop  offset="0.8259" style="stop-color:#1E1845"/>
		<stop  offset="1" style="stop-color:#201D4A"/>
	</linearGradient>
	<ellipse id="lense" class="st6" cx="946.1" cy="707.22" rx="311.55" ry="283.09"/>
	<ellipse id="lense_simple" class="st3" cx="947.55" cy="706.9" rx="311.55" ry="283.09"/>
</g>
<g id="simple_bw" class="st0">
	<ellipse id="pvc-front_1_" class="st7" cx="959.72" cy="959.98" rx="890.28" ry="801.53"/>
	<polygon id="sensor-board_1_" class="st7" points="348.9,532.31 1525.23,453.01 1646.08,1310.24 291.31,1400.9 	"/>
	<polyline id="mount_1_" class="st8" points="1258.94,1714.47 1259,1336.67 711.43,1372.55 661.69,1715.65 	"/>
	<linearGradient id="lense_3_" gradientUnits="userSpaceOnUse" x1="959.7248" y1="1245.373" x2="959.7248" y2="706.3601">
		<stop  offset="1.424501e-03" style="stop-color:#001C4C"/>
		<stop  offset="0.1272" style="stop-color:#021D4E"/>
		<stop  offset="0.1725" style="stop-color:#092255"/>
		<stop  offset="0.2048" style="stop-color:#142A60"/>
		<stop  offset="0.2309" style="stop-color:#253671"/>
		<stop  offset="0.253" style="stop-color:#3B4586"/>
		<stop  offset="0.2702" style="stop-color:#52559D"/>
		<stop  offset="0.2827" style="stop-color:#454386"/>
		<stop  offset="0.3012" style="stop-color:#362F6B"/>
		<stop  offset="0.3224" style="stop-color:#291E55"/>
		<stop  offset="0.3471" style="stop-color:#201244"/>
		<stop  offset="0.3777" style="stop-color:#190939"/>
		<stop  offset="0.4207" style="stop-color:#150332"/>
		<stop  offset="0.5399" style="stop-color:#140230"/>
		<stop  offset="0.6167" style="stop-color:#170937"/>
		<stop  offset="0.8259" style="stop-color:#1E1845"/>
		<stop  offset="1" style="stop-color:#201D4A"/>
	</linearGradient>
	<ellipse id="lense_1_" class="st9" cx="959.72" cy="922.22" rx="355.65" ry="323.15"/>
	<ellipse id="lense_simple_1_" class="st7" cx="961.37" cy="921.85" rx="355.65" ry="323.15"/>
</g>
<g id="MASK" class="st0">
	<linearGradient id="SVGID_1_" gradientUnits="userSpaceOnUse" x1="-0.5" y1="960" x2="1920.5" y2="960">
		<stop  offset="1.424501e-03" style="stop-color:#001C4C"/>
		<stop  offset="0.1272" style="stop-color:#021D4E"/>
		<stop  offset="0.1725" style="stop-color:#092255"/>
		<stop  offset="0.2048" style="stop-color:#142A60"/>
		<stop  offset="0.2309" style="stop-color:#253671"/>
		<stop  offset="0.253" style="stop-color:#3B4586"/>
		<stop  offset="0.2702" style="stop-color:#52559D"/>
		<stop  offset="0.2704" style="stop-color:#52559D"/>
		<stop  offset="0.2898" style="stop-color:#3D3A82"/>
		<stop  offset="0.3117" style="stop-color:#2D256C"/>
		<stop  offset="0.3377" style="stop-color:#20145B"/>
		<stop  offset="0.3698" style="stop-color:#170950"/>
		<stop  offset="0.4148" style="stop-color:#110249"/>
		<stop  offset="0.5399" style="stop-color:#100047"/>
		<stop  offset="0.6323" style="stop-color:#150948"/>
		<stop  offset="0.833" style="stop-color:#1D1849"/>
		<stop  offset="1" style="stop-color:#201D4A"/>
	</linearGradient>
	<circle class="st10" cx="960" cy="960" r="960"/>
	<rect x="2278.5" y="102.5" class="st11" width="341" height="341"/>
	<rect x="2719.5" y="102.5" class="st12" width="341" height="341"/>
	<rect x="2278.5" y="546.5" class="st13" width="341" height="341"/>
	<rect x="2719.5" y="546.5" class="st14" width="341" height="341"/>
	<rect x="2278.5" y="990.5" class="st15" width="341" height="341"/>
	<rect x="2719.5" y="990.5" class="st16" width="341" height="341"/>
	<rect x="2278.5" y="1429.5" class="st17" width="341" height="341"/>
	<rect x="2719.5" y="1429.5" class="st18" width="341" height="341"/>
</g>
<g id="ClockFace_Shape" class="st0">
	<g id="Layer_3" class="st19">
		<rect x="267.56" y="164.5" class="st20" width="1418.89" height="1203"/>
	</g>
	<circle class="st21" cx="977.35" cy="749.81" r="584.92"/>
	<ellipse class="st22" cx="1030.51" cy="706.23" rx="527.57" ry="541.35"/>
	<polyline class="st23" points="965.58,203.58 811.83,884.88 1468.41,746.72 	"/>
	<polyline class="st24" points="1004.14,163.1 850.38,844.39 1506.97,706.23 	"/>
	<ellipse class="st25" cx="1535.5" cy="706.65" rx="97" ry="96.89"/>
</g>
</svg>
